RobotoExtremo-opszmin.ufo
<glyph name="quotedbl" format="2">
  <advance width="777"/>
  <unicode hex="0022"/>
  <outline>
    <contour>
      <point x="115.72" y="936.72" type="line"/>
      <point x="272.92" y="936.72" type="line"/>
      <point x="288.64" y="1311.84" type="line"/>
      <point x="288.64" y="1456.0" type="line"/>
      <point x="100.0" y="1456.0" type="line"/>
      <point x="100.0" y="1311.84" type="line"/>
    </contour>
    <contour>
      <point x="504.36" y="936.72" type="line"/>
      <point x="661.5600000000001" y="936.72" type="line"/>
      <point x="677.28" y="1311.84" type="line"/>
      <point x="677.28" y="1456.0" type="line"/>
      <point x="488.64" y="1456.0" type="line"/>
      <point x="488.64" y="1311.84" type="line"/>
    </contour>
  </outline>
</glyph>
<glyph name="two" format="2">
  <advance width="1193"/>
  <unicode hex="0032"/>
  <outline>
    <contour>
      <point x="97.99999999999999" y="0.0" type="line"/>
      <point x="1120.4" y="0.0" type="line"/>
      <point x="1120.4" y="173.28000000000003" type="line"/>
      <point x="359.04" y="173.28000000000003" type="line"/>
      <point x="792.36" y="593.2" type="line" smooth="yes"/>
      <point x="914.48" y="711.24"/>
      <point x="1080.4" y="939.84"/>
      <point x="1080.4" y="1082.96" type="qcurve" smooth="yes"/>
      <point x="1080.4" y="1245.2"/>
      <point x="818.4399999999999" y="1486.0"/>
      <point x="604.04" y="1486.0" type="qcurve" smooth="yes"/>
      <point x="386.28" y="1486.0"/>
      <point x="96.39999999999999" y="1225.12"/>
      <point x="96.39999999999999" y="1025.2" type="qcurve" smooth="yes"/>
      <point x="96.39999999999999" y="1015.2" type="line"/>
      <point x="299.84" y="1015.2" type="line"/>
      <point x="299.84" y="1025.2" type="line" smooth="yes"/>
      <point x="299.84" y="1158.24"/>
      <point x="473.32" y="1313.36"/>
      <point x="604.04" y="1313.36" type="qcurve" smooth="yes"/>
      <point x="732.1999999999999" y="1313.36"/>
      <point x="876.8" y="1169.96"/>
      <point x="876.8" y="1072.96" type="qcurve" smooth="yes"/>
      <point x="876.8" y="977.08"/>
      <point x="760.3199999999999" y="810.08"/>
      <point x="655.92" y="707.52" type="qcurve" smooth="yes"/>
      <point x="97.99999999999999" y="156.8" type="line"/>
    </contour>
  </outline>
</glyph>
<glyph name="E" format="2">
  <advance width="1220"/>
  <unicode hex="0045"/>
  <anchor x="676" y="1432" name="top"/>
  <outline>
    <contour>
      <point x="170.0" y="0.0" type="line"/>
      <point x="1151.6" y="0.0" type="line"/>
      <point x="1151.6" y="171.44" type="line"/>
      <point x="374.64" y="171.44" type="line"/>
      <point x="374.64" y="665.28" type="line"/>
      <point x="1045.6" y="665.28" type="line"/>
      <point x="1045.6" y="836.72" type="line"/>
      <point x="374.64" y="836.72" type="line"/>
      <point x="374.64" y="1284.56" type="line"/>
      <point x="1141.28" y="1284.56" type="line"/>
      <point x="1141.28" y="1456.0" type="line"/>
      <point x="170.0" y="1456.0" type="line"/>
    </contour>
  </outline>
</glyph>
<glyph name="I" format="2">
  <advance width="555"/>
  <unicode hex="0049"/>
  <anchor x="286" y="1432" name="top"/>
  <outline>
    <contour>
      <point x="175.0" y="0.0" type="line"/>
      <point x="379.64" y="0.0" type="line"/>
      <point x="379.64" y="1456.0" type="line"/>
      <point x="175.0" y="1456.0" type="line"/>
    </contour>
  </outline>
</glyph>
<glyph name="N" format="2">
  <advance width="1523"/>
  <unicode hex="004E"/>
  <anchor x="770" y="1432" name="top"/>
  <outline>
    <contour>
      <point x="170.0" y="0.0" type="line"/>
      <point x="366.96000000000004" y="0.0" type="line"/>
      <point x="366.96000000000004" y="992.8" type="line" smooth="yes"/>
      <point x="366.96000000000004" y="1022.8"/>
      <point x="362.96000000000004" y="1097.8"/>
      <point x="358.96000000000004" y="1127.8" type="qcurve"/>
      <point x="368.96000000000004" y="1127.8" type="line"/>
      <point x="382.96000000000004" y="1102.8"/>
      <point x="418.40000000000003" y="1042.8"/>
      <point x="439.2" y="1012.8" type="qcurve" smooth="yes"/>
      <point x="1135.76" y="0.0" type="line"/>
      <point x="1352.72" y="0.0" type="line"/>
      <point x="1352.72" y="1456.0" type="line"/>
      <point x="1156" y="1456.0" type="line"/>
      <point x="1156" y="463" type="line" smooth="yes"/>
      <point x="1156" y="433"/>
      <point x="1160" y="358"/>
      <point x="1164" y="328" type="qcurve"/>
      <point x="1154" y="328" type="line"/>
      <point x="1140" y="353"/>
      <point x="1104" y="403"/>
      <point x="1084" y="433" type="qcurve" smooth="yes"/>
      <point x="386.96000000000004" y="1456.0" type="line"/>
      <point x="170.0" y="1456.0" type="line"/>
    </contour>
  </outline>
</glyph>
<glyph name="U" format="2">
  <advance width="1432"/>
  <unicode hex="0055"/>
  <anchor x="713" y="1432" name="top"/>
  <outline>
    <contour>
      <point x="155.0" y="491.92" type="qcurve" smooth="yes"/>
      <point x="155.0" y="1456.0" type="line"/>
      <point x="359.64" y="1456.0" type="line"/>
      <point x="359.64" y="491.92" type="line" smooth="yes"/>
      <point x="359.64" y="317.872380952381"/>
      <point x="556.2340811455847" y="147.92000000000002"/>
      <point x="715.76" y="147.92000000000002" type="qcurve" smooth="yes"/>
      <point x="875.1075894988066" y="147.92000000000002"/>
      <point x="1071.88" y="317.872380952381"/>
      <point x="1071.88" y="491.92" type="qcurve" smooth="yes"/>
      <point x="1071.88" y="1456.0" type="line"/>
      <point x="1276.52" y="1456.0" type="line"/>
      <point x="1276.52" y="491.92" type="line" smooth="yes"/>
      <point x="1276.52" y="231.02049099836333"/>
      <point x="949.84" y="-30.0"/>
      <point x="715.76" y="-30.0" type="qcurve" smooth="yes"/>
      <point x="481.68" y="-30.0"/>
      <point x="155.0" y="231.02049099836333"/>
    </contour>
  </outline>
</glyph>
<glyph name="V" format="2">
  <advance width="1327"/>
  <unicode hex="0056"/>
  <outline>
    <contour>
      <point x="0.0" y="1456.0" type="line"/>
      <point x="565.76" y="-8.799999999999999" type="line"/>
      <point x="761.52" y="-8.799999999999999" type="line"/>
      <point x="1327.28" y="1456.0" type="line"/>
      <point x="1120.72" y="1456.0" type="line"/>
      <point x="718.56" y="391.52000000000004" type="line" smooth="yes"/>
      <point x="704.8" y="355.8"/>
      <point x="681.68" y="286.12"/>
      <point x="672.92" y="250.4" type="qcurve"/>
      <point x="662.6" y="250.4" type="line"/>
      <point x="653.84" y="286.12"/>
      <point x="630.88" y="355.8"/>
      <point x="617.12" y="391.52000000000004" type="qcurve" smooth="yes"/>
      <point x="218.64000000000001" y="1456.0" type="line"/>
    </contour>
  </outline>
</glyph>
<glyph name="W" format="2">
  <advance width="1912"/>
  <unicode hex="0057"/>
  <outline>
    <contour>
      <point x="427.03999999999996" y="-8.799999999999999" type="line"/>
      <point x="635.6800000000001" y="-8.799999999999999" type="line"/>
      <point x="924" y="1066" type="line" smooth="yes"/>
      <point x="933" y="1100"/>
      <point x="948" y="1161"/>
      <point x="951" y="1194" type="qcurve"/>
      <point x="964.0" y="1194" type="line"/>
      <point x="967" y="1161"/>
      <point x="980" y="1100"/>
      <point x="989" y="1066" type="qcurve" smooth="yes"/>
      <point x="1276.16" y="-8.799999999999999" type="line"/>
      <point x="1484.8" y="-8.799999999999999" type="line"/>
      <point x="1861.68" y="1456.0" type="line"/>
      <point x="1660.56" y="1456.0" type="line"/>
      <point x="1418" y="375" type="line" smooth="yes"/>
      <point x="1410" y="341"/>
      <point x="1399" y="281"/>
      <point x="1396" y="247" type="qcurve"/>
      <point x="1376" y="247" type="line"/>
      <point x="1373" y="280"/>
      <point x="1360" y="341"/>
      <point x="1351" y="375" type="qcurve" smooth="yes"/>
      <point x="1070" y="1456.0" type="line"/>
      <point x="849" y="1456.0" type="line"/>
      <point x="576" y="375" type="line" smooth="yes"/>
      <point x="567" y="341"/>
      <point x="557" y="280"/>
      <point x="554.0" y="247" type="qcurve"/>
      <point x="541" y="247" type="line"/>
      <point x="538" y="280"/>
      <point x="527" y="341"/>
      <point x="519" y="375" type="qcurve" smooth="yes"/>
      <point x="258.72" y="1456.0" type="line"/>
      <point x="50.0" y="1456.0" type="line"/>
    </contour>
  </outline>
</glyph>
<glyph name="Z" format="2">
  <advance width="1190"/>
  <unicode hex="005A"/>
  <outline>
    <contour>
      <point x="36.0" y="0.0" type="line"/>
      <point x="1154.12" y="0.0" type="line"/>
      <point x="1154.12" y="171.44" type="line"/>
      <point x="289.24" y="171.44" type="line"/>
      <point x="1120.84" y="1304.96" type="line"/>
      <point x="1120.84" y="1456.0" type="line"/>
      <point x="48.48" y="1456.0" type="line"/>
      <point x="48.48" y="1284.56" type="line"/>
      <point x="867.6" y="1284.56" type="line"/>
      <point x="36.0" y="151.04000000000002" type="line"/>
    </contour>
  </outline>
</glyph>
<glyph name="bracketleft" format="2">
  <advance width="662"/>
  <unicode hex="005B"/>
  <outline>
    <contour>
      <point x="144.0" y="-310.0" type="line"/>
      <point x="651.44" y="-310.0" type="line"/>
      <point x="651.44" y="-138.0" type="line"/>
      <point x="341.40000000000003" y="-138.0" type="line"/>
      <point x="341.40000000000003" y="1284.0" type="line"/>
      <point x="651.44" y="1284.0" type="line"/>
      <point x="651.44" y="1456.0" type="line"/>
      <point x="144.0" y="1456.0" type="line"/>
    </contour>
  </outline>
</glyph>
<glyph name="bracketright" format="2">
  <advance width="662"/>
  <unicode hex="005D"/>
  <outline>
    <contour>
      <point x="518.4" y="-310.0" type="line"/>
      <point x="518.4" y="1456.0" type="line"/>
      <point x="10.960000000000008" y="1456.0" type="line"/>
      <point x="10.960000000000008" y="1284.0" type="line"/>
      <point x="321.0" y="1284.0" type="line"/>
      <point x="321.0" y="-138.0" type="line"/>
      <point x="10.960000000000008" y="-138.0" type="line"/>
      <point x="10.960000000000008" y="-310.0" type="line"/>
    </contour>
  </outline>
</glyph>
<glyph name="grave" format="2">
  <advance width="1036"/>
  <unicode hex="0060"/>
  <anchor x="512" y="1052" name="_top"/>
  <outline>
    <contour>
      <point x="582" y="1201.0" type="line"/>
      <point x="290" y="1471.0" type="line"/>
      <point x="443" y="1602.0" type="line"/>
      <point x="689" y="1283.0" type="line"/>
    </contour>
  </outline>
</glyph>
<glyph name="a" format="2">
  <advance width="1186"/>
  <unicode hex="0061"/>
  <anchor x="602" y="1089" name="top"/>
  <outline>
    <contour>
      <point x="90.0" y="319.6" type="qcurve" smooth="yes"/>
      <point x="90.0" y="154.94545454545454"/>
      <point x="316.5584435797665" y="-20.0"/>
      <point x="478.32" y="-20.0" type="qcurve" smooth="yes"/>
      <point x="621.7429327064355" y="-20.0"/>
      <point x="804.1005633245145" y="83.50271998909125"/>
      <point x="844.88" y="151.4" type="qcurve"/>
      <point x="848.1717177985904" y="109.64376268546164"/>
      <point x="871.8425855649448" y="25.85252577688436"/>
      <point x="887.28" y="0.0" type="qcurve"/>
      <point x="1079.12" y="0.0" type="line"/>
      <point x="1079.12" y="16.0" type="line"/>
      <point x="1060.16" y="60.0"/>
      <point x="1039.04" y="175.0"/>
      <point x="1039.04" y="240.0" type="qcurve" smooth="yes"/>
      <point x="1039.04" y="757.12" type="line" smooth="yes"/>
      <point x="1039.04" y="937.12"/>
      <point x="811.4" y="1119.12"/>
      <point x="604.68" y="1119.12" type="qcurve" smooth="yes"/>
      <point x="398.12" y="1119.12"/>
      <point x="155.44" y="923.0015384615384"/>
      <point x="155.44" y="791.92" type="qcurve" smooth="yes"/>
      <point x="155.44" y="786.92" type="line"/>
      <point x="352.84000000000003" y="786.92" type="line"/>
      <point x="352.84000000000003" y="791.92" type="line" smooth="yes"/>
      <point x="352.84000000000003" y="858.6866666666666"/>
      <point x="466.7131353135313" y="960.08"/>
      <point x="599.36" y="960.08" type="qcurve" smooth="yes"/>
      <point x="732.123367003367" y="960.08"/>
      <point x="840.72" y="847.2"/>
      <point x="840.72" y="757.12" type="qcurve" smooth="yes"/>
      <point x="840.72" y="670.8" type="line"/>
      <point x="578.24" y="670.8" type="line" smooth="yes"/>
      <point x="365.52" y="670.8"/>
      <point x="90.0" y="485.70532663316584"/>
    </contour>
    <contour>
      <point x="288.32" y="329.6" type="qcurve" smooth="yes"/>
      <point x="288.32" y="420.9390816326531"/>
      <point x="446.08331606217615" y="528.24"/>
      <point x="599.36" y="528.24" type="qcurve" smooth="yes"/>
      <point x="840.72" y="528.24" type="line"/>
      <point x="840.72" y="377.4" type="line"/>
      <point x="840.72" y="291.88064135021096"/>
      <point x="644.8731519274377" y="139.04000000000002"/>
      <point x="523.76" y="139.04000000000002" type="qcurve" smooth="yes"/>
      <point x="402.6566567106658" y="139.04000000000002"/>
      <point x="288.32" y="240.275"/>
    </contour>
  </outline>
</glyph>
<glyph name="b" format="2">
  <advance width="1249"/>
  <unicode hex="0062"/>
  <outline>
    <contour>
      <point x="148.0" y="0.0" type="line"/>
      <point x="328.48" y="0.0" type="line"/>
      <point x="336.96000000000004" y="141.8" type="line"/>
      <point x="342.16" y="141.8" type="line"/>
      <point x="386.1959667921092" y="74.63997054042184"/>
      <point x="567.8829906542056" y="-20.0"/>
      <point x="689.16" y="-20.0" type="qcurve" smooth="yes"/>
      <point x="905.08" y="-20.0"/>
      <point x="1164.04" y="290.5056603773585"/>
      <point x="1164.04" y="528.56" type="qcurve" smooth="yes"/>
      <point x="1164.04" y="560.56" type="line" smooth="yes"/>
      <point x="1164.04" y="798.5154179566564"/>
      <point x="905.08" y="1109.12"/>
      <point x="689.16" y="1109.12" type="qcurve" smooth="yes"/>
      <point x="567.8385815602837" y="1109.12"/>
      <point x="397.1736247237443" y="1027.688143097972"/>
      <point x="346.32" y="960.32" type="qcurve"/>
      <point x="346.32" y="1536.0" type="line"/>
      <point x="148.0" y="1536.0" type="line"/>
    </contour>
    <contour>
      <point x="346.32" y="330.96000000000004" type="qcurve"/>
      <point x="346.32" y="758.16" type="line"/>
      <point x="380.2691192769023" y="830.2617006020629"/>
      <point x="534.0089972899729" y="942.96"/>
      <point x="643.72" y="942.96" type="qcurve" smooth="yes"/>
      <point x="807.9932994923857" y="942.96"/>
      <point x="961.24" y="722.3876923076923"/>
      <point x="961.24" y="560.56" type="qcurve" smooth="yes"/>
      <point x="961.24" y="528.56" type="line" smooth="yes"/>
      <point x="961.24" y="366.70391534391536"/>
      <point x="807.9932994923857" y="146.16000000000003"/>
      <point x="643.72" y="146.16000000000003" type="qcurve" smooth="yes"/>
      <point x="534.0089972899729" y="146.16000000000003"/>
      <point x="380.2836430362707" y="258.83387307536293"/>
    </contour>
  </outline>
</glyph>
<glyph name="c" format="2">
  <advance width="1112"/>
  <unicode hex="0063"/>
  <anchor x="612.0" y="0.0" name="bottom"/>
  <outline>
    <contour>
      <point x="85.0" y="528.56" type="line" smooth="yes"/>
      <point x="85.0" y="282.37985185185187"/>
      <point x="365.68" y="-30.0"/>
      <point x="611.8" y="-30.0" type="qcurve" smooth="yes"/>
      <point x="840.28" y="-30.0"/>
      <point x="1077.24" y="203.76217054263566"/>
      <point x="1077.24" y="348.2" type="qcurve" smooth="yes"/>
      <point x="1077.24" y="353.2" type="line"/>
      <point x="884.4399999999999" y="353.2" type="line"/>
      <point x="884.4399999999999" y="348.2" type="line" smooth="yes"/>
      <point x="884.4399999999999" y="263.8521739130435"/>
      <point x="754.7823145400594" y="134.96"/>
      <point x="611.8" y="134.96" type="qcurve" smooth="yes"/>
      <point x="445.41151364764266" y="134.96"/>
      <point x="287.8" y="363.2074226804124"/>
      <point x="287.8" y="528.56" type="qcurve" smooth="yes"/>
      <point x="287.8" y="560.56" type="line" smooth="yes"/>
      <point x="287.8" y="725.9884797905416"/>
      <point x="445.41151364764266" y="954.16"/>
      <point x="611.8" y="954.16" type="qcurve" smooth="yes"/>
      <point x="754.7823145400594" y="954.16"/>
      <point x="884.4399999999999" y="825.2678260869565"/>
      <point x="884.4399999999999" y="740.92" type="qcurve" smooth="yes"/>
      <point x="884.4399999999999" y="735.92" type="line"/>
      <point x="1077.24" y="735.92" type="line"/>
      <point x="1077.24" y="740.92" type="line" smooth="yes"/>
      <point x="1077.24" y="885.3578294573643"/>
      <point x="840.28" y="1119.12"/>
      <point x="611.8" y="1119.12" type="qcurve" smooth="yes"/>
      <point x="365.68" y="1119.12"/>
      <point x="85.0" y="806.7034146341464"/>
      <point x="85.0" y="560.56" type="qcurve" smooth="yes"/>
    </contour>
  </outline>
</glyph>
<glyph name="i" format="2">
  <advance width="512"/>
  <unicode hex="0069"/>
  <outline>
    <contour>
      <point x="157.0" y="0.0" type="line"/>
      <point x="355.32" y="0.0" type="line"/>
      <point x="355.32" y="1089.12" type="line"/>
      <point x="157.0" y="1089.12" type="line"/>
    </contour>
    <contour>
      <point x="138.07999999999998" y="1398.72" type="qcurve" smooth="yes"/>
      <point x="138.07999999999998" y="1350.12"/>
      <point x="199.24" y="1284.32"/>
      <point x="256.16" y="1284.32" type="qcurve" smooth="yes"/>
      <point x="313.08" y="1284.32"/>
      <point x="374.24" y="1350.12"/>
      <point x="374.24" y="1398.72" type="qcurve" smooth="yes"/>
      <point x="374.24" y="1447.32"/>
      <point x="313.08" y="1513.12"/>
      <point x="256.16" y="1513.12" type="qcurve" smooth="yes"/>
      <point x="199.24" y="1513.12"/>
      <point x="138.07999999999998" y="1447.32"/>
    </contour>
  </outline>
</glyph>
<glyph name="k" format="2">
  <advance width="1100"/>
  <unicode hex="006B"/>
  <outline>
    <contour>
      <point x="148.0" y="0.0" type="line"/>
      <point x="346.32" y="0.0" type="line"/>
      <point x="346.32" y="355.08" type="line"/>
      <point x="1064.12" y="1089.12" type="line"/>
      <point x="814.3199999999999" y="1089.12" type="line"/>
      <point x="346.32" y="611.44" type="line"/>
      <point x="346.32" y="1536.0" type="line"/>
      <point x="148.0" y="1536.0" type="line"/>
    </contour>
    <contour>
      <point x="867.28" y="0.0" type="line"/>
      <point x="1116.0" y="0.0" type="line"/>
      <point x="568.04" y="705.12" type="line"/>
      <point x="433.15999999999997" y="558.48" type="line"/>
    </contour>
  </outline>
</glyph>
<glyph name="n" format="2">
  <advance width="1212"/>
  <unicode hex="006E"/>
  <anchor x="641.0" y="1089.0" name="top"/>
  <outline>
    <contour>
      <point x="148.0" y="0.0" type="line"/>
      <point x="346.32" y="0.0" type="line"/>
      <point x="346.32" y="757.84" type="line"/>
      <point x="389.23401587143604" y="837.8711870106604"/>
      <point x="537.4967597765364" y="939.4399999999999"/>
      <point x="635.24" y="939.4399999999999" type="qcurve" smooth="yes"/>
      <point x="750.2837966101695" y="939.4399999999999"/>
      <point x="875.4399999999999" y="823.0187234042553"/>
      <point x="875.4399999999999" y="688.44" type="qcurve" smooth="yes"/>
      <point x="875.4399999999999" y="0.0" type="line"/>
      <point x="1073.76" y="0.0" type="line"/>
      <point x="1073.76" y="686.44" type="line" smooth="yes"/>
      <point x="1073.76" y="914.5110432569975"/>
      <point x="868.92" y="1109.12"/>
      <point x="696.48" y="1109.12" type="qcurve" smooth="yes"/>
      <point x="586.4237986270023" y="1109.12"/>
      <point x="406.12" y="1023.56"/>
      <point x="342.16" y="944.52" type="qcurve"/>
      <point x="336.96000000000004" y="944.52" type="line"/>
      <point x="328.48" y="1089.12" type="line"/>
      <point x="148.0" y="1089.12" type="line"/>
    </contour>
  </outline>
</glyph>
<glyph name="o" format="2">
  <advance width="1245"/>
  <unicode hex="006F"/>
  <anchor x="623.0" y="1089.0" name="top"/>
  <outline>
    <contour>
      <point x="85.0" y="528.56" type="line" smooth="yes"/>
      <point x="85.0" y="282.37985185185187"/>
      <point x="377.64" y="-30.0"/>
      <point x="622.44" y="-30.0" type="qcurve" smooth="yes"/>
      <point x="867.24" y="-30.0"/>
      <point x="1159.88" y="282.37985185185187"/>
      <point x="1159.88" y="528.56" type="qcurve" smooth="yes"/>
      <point x="1159.88" y="560.56" type="line" smooth="yes"/>
      <point x="1159.88" y="806.7034146341464"/>
      <point x="867.24" y="1119.12"/>
      <point x="622.44" y="1119.12" type="qcurve" smooth="yes"/>
      <point x="377.64" y="1119.12"/>
      <point x="85.0" y="806.7034146341464"/>
      <point x="85.0" y="560.56" type="qcurve" smooth="yes"/>
    </contour>
    <contour>
      <point x="287.8" y="560.56" type="line" smooth="yes"/>
      <point x="287.8" y="725.4330158730158"/>
      <point x="456.36" y="952.96"/>
      <point x="622.44" y="952.96" type="qcurve" smooth="yes"/>
      <point x="788.52" y="952.96"/>
      <point x="957.0799999999999" y="725.4330158730158"/>
      <point x="957.0799999999999" y="560.56" type="qcurve" smooth="yes"/>
      <point x="957.0799999999999" y="528.56" type="line" smooth="yes"/>
      <point x="957.0799999999999" y="363.7628865979382"/>
      <point x="788.52" y="136.16000000000003"/>
      <point x="622.44" y="136.16000000000003" type="qcurve" smooth="yes"/>
      <point x="456.36" y="136.16000000000003"/>
      <point x="287.8" y="363.7628865979382"/>
      <point x="287.8" y="528.56" type="qcurve" smooth="yes"/>
    </contour>
  </outline>
</glyph>
<glyph name="u" format="2">
  <advance width="1212"/>
  <unicode hex="0075"/>
  <outline>
    <contour>
      <point x="138.0" y="402.68" type="line" smooth="yes"/>
      <point x="138.0" y="174.6"/>
      <point x="342.84" y="-20.0"/>
      <point x="515.28" y="-20.0" type="qcurve" smooth="yes"/>
      <point x="625.36" y="-20.0"/>
      <point x="805.64" y="65.56"/>
      <point x="869.6" y="144.6" type="qcurve"/>
      <point x="874.8" y="144.6" type="line"/>
      <point x="883.28" y="0.0" type="line"/>
      <point x="1063.76" y="0.0" type="line"/>
      <point x="1063.76" y="1089.12" type="line"/>
      <point x="865.4399999999999" y="1089.12" type="line"/>
      <point x="865.4399999999999" y="331.28000000000003" type="line"/>
      <point x="822.48" y="251.28"/>
      <point x="674.3199999999999" y="149.68"/>
      <point x="576.52" y="149.68" type="qcurve" smooth="yes"/>
      <point x="461.48" y="149.68"/>
      <point x="336.32" y="266.04"/>
      <point x="336.32" y="400.68" type="qcurve" smooth="yes"/>
      <point x="336.32" y="1089.12" type="line"/>
      <point x="138.0" y="1089.12" type="line"/>
    </contour>
  </outline>
</glyph>
<glyph name="y" format="2">
  <advance width="1013"/>
  <unicode hex="0079"/>
  <anchor x="525.0" y="1089.0" name="top"/>
  <outline>
    <contour>
      <point x="57.040000000000006" y="-416.0" type="line"/>
      <point x="86.96000000000001" y="-426.24"/>
      <point x="153.44" y="-436.0"/>
      <point x="196.16" y="-436.0" type="qcurve" smooth="yes"/>
      <point x="325.0382456140351" y="-436.0"/>
      <point x="502.36" y="-280.2"/>
      <point x="556.12" y="-140.0" type="qcurve" smooth="yes"/>
      <point x="1015.28" y="1089.12" type="line"/>
      <point x="826.8" y="1089.12" type="line"/>
      <point x="571.76" y="381.6" type="line" smooth="yes"/>
      <point x="557.12" y="341.28000000000003"/>
      <point x="533.6" y="261.6"/>
      <point x="527.52" y="221.60000000000002" type="qcurve"/>
      <point x="521.84" y="221.60000000000002" type="line"/>
      <point x="515.76" y="261.6"/>
      <point x="493.15999999999997" y="341.28000000000003"/>
      <point x="477.6" y="381.6" type="qcurve" smooth="yes"/>
      <point x="207.60000000000002" y="1089.12" type="line"/>
      <point x="10.0" y="1089.12" type="line"/>
      <point x="429.91999999999996" y="10.0" type="line"/>
      <point x="397.48" y="-87.99999999999999" type="line" smooth="yes"/>
      <point x="360.32" y="-188.35999999999999"/>
      <point x="261.14716981132074" y="-264.0"/>
      <point x="184.88" y="-264.0" type="qcurve" smooth="yes"/>
      <point x="152.96" y="-264.0"/>
      <point x="84.8" y="-254.12"/>
      <point x="57.040000000000006" y="-246.0" type="qcurve"/>
    </contour>
  </outline>
</glyph>
<glyph name="exclamdown" format="2">
  <advance width="634"/>
  <unicode hex="00A1"/>
  <outline>
    <contour>
      <point x="213.32" y="-280.0" type="line"/>
      <point x="420.6" y="-280.0" type="line"/>
      <point x="404.40000000000003" y="755.2" type="line"/>
      <point x="229.52" y="755.2" type="line"/>
    </contour>
    <contour>
      <point x="186.0" y="1070.36" type="qcurve" smooth="yes"/>
      <point x="186.0" y="1017.76"/>
      <point x="253.6" y="942.72"/>
      <point x="316.96" y="942.72" type="qcurve" smooth="yes"/>
      <point x="380.32" y="942.72"/>
      <point x="447.92" y="1017.76"/>
      <point x="447.92" y="1070.36" type="qcurve" smooth="yes"/>
      <point x="447.92" y="1122.96"/>
      <point x="380.32" y="1198.0"/>
      <point x="316.96" y="1198.0" type="qcurve" smooth="yes"/>
      <point x="253.6" y="1198.0"/>
      <point x="186.0" y="1122.96"/>
    </contour>
  </outline>
</glyph>
<glyph name="cent" format="2">
  <advance width="1024"/>
  <unicode hex="00A2"/>
  <outline>
    <contour>
      <point x="547" y="282" type="qcurve" smooth="yes"/>
      <point x="646" y="282.0"/>
      <point x="795" y="401"/>
      <point x="802" y="492" type="qcurve"/>
      <point x="978" y="492" type="line"/>
      <point x="970" y="348"/>
      <point x="718" y="130.0"/>
      <point x="547" y="130" type="qcurve"/>
      <point x="304" y="130.0"/>
      <point x="65.0" y="454"/>
      <point x="65" y="670" type="qcurve" smooth="yes"/>
      <point x="65" y="712" type="line" smooth="yes"/>
      <point x="65.0" y="928"/>
      <point x="304" y="1252.0"/>
      <point x="547" y="1252" type="qcurve" smooth="yes"/>
      <point x="736" y="1252.0"/>
      <point x="971" y="1026"/>
      <point x="978" y="860" type="qcurve"/>
      <point x="802" y="860" type="line"/>
      <point x="795" y="959"/>
      <point x="657" y="1100.0"/>
      <point x="547" y="1100" type="qcurve"/>
      <point x="377" y="1100.0"/>
      <point x="251.0" y="852"/>
      <point x="251" y="712" type="qcurve" smooth="yes"/>
      <point x="251" y="670" type="line" smooth="yes"/>
      <point x="251.0" y="528"/>
      <point x="375" y="282.0"/>
    </contour>
    <contour>
      <point x="469" y="0" type="line"/>
      <point x="469" y="237" type="line"/>
      <point x="474" y="251" type="line"/>
      <point x="474" y="708" type="line"/>
      <point x="614" y="708" type="line"/>
      <point x="614" y="250" type="line"/>
      <point x="619" y="240" type="line"/>
      <point x="619" y="0" type="line"/>
    </contour>
    <contour>
      <point x="474" y="708" type="line"/>
      <point x="474" y="1182" type="line"/>
      <point x="469" y="1192" type="line"/>
      <point x="469" y="1402" type="line"/>
      <point x="619" y="1402" type="line"/>
      <point x="619" y="1192" type="line"/>
      <point x="614" y="1179" type="line"/>
      <point x="614" y="708" type="line"/>
    </contour>
  </outline>
</glyph>
<glyph name="sterling" format="2">
  <advance width="1222"/>
  <unicode hex="00A3"/>
  <outline>
    <contour>
      <point x="100.8" y="0.0" type="line"/>
      <point x="1145.52" y="0.0" type="line"/>
      <point x="1145.52" y="169.68" type="line"/>
      <point x="383.52" y="169.68" type="line"/>
      <point x="443.12768916682734" y="211.9428718220461"/>
      <point x="500.96000000000004" y="351.03661971830985"/>
      <point x="500.96000000000004" y="449.6" type="qcurve" smooth="yes"/>
      <point x="500.96000000000004" y="585.8064516129033"/>
      <point x="413.6" y="926.3466666666667"/>
      <point x="413.6" y="1052.8" type="qcurve" smooth="yes"/>
      <point x="413.6" y="1179.8986301369864"/>
      <point x="541.0676923076923" y="1301.04"/>
      <point x="669.56" y="1301.04" type="qcurve" smooth="yes"/>
      <point x="797.9678431372549" y="1301.04"/>
      <point x="931.68" y="1181.1370212765958"/>
      <point x="931.68" y="1060.2" type="qcurve" smooth="yes"/>
      <point x="931.68" y="1040.2" type="line"/>
      <point x="1129.88" y="1040.2" type="line"/>
      <point x="1129.88" y="1060.2" type="line" smooth="yes"/>
      <point x="1129.88" y="1247.360583941606"/>
      <point x="882.6688372093023" y="1476.0"/>
      <point x="669.56" y="1476.0" type="qcurve" smooth="yes"/>
      <point x="456.8" y="1476.0"/>
      <point x="215.28" y="1246.0884615384616"/>
      <point x="215.28" y="1052.8" type="qcurve" smooth="yes"/>
      <point x="215.28" y="887.1696551724137"/>
      <point x="308.8" y="565.5272727272727"/>
      <point x="308.8" y="409.6" type="qcurve" smooth="yes"/>
      <point x="308.8" y="311.232"/>
      <point x="204.78995392990348" y="173.67849308948553"/>
      <point x="100.8" y="163.68" type="qcurve"/>
    </contour>
    <contour>
      <point x="80.0" y="631.12" type="line"/>
      <point x="937.52" y="631.12" type="line"/>
      <point x="937.52" y="800.8" type="line"/>
      <point x="80.0" y="800.8" type="line"/>
    </contour>
  </outline>
</glyph>
<glyph name="yen" format="2">
  <advance width="1107"/>
  <unicode hex="00A5"/>
  <outline>
    <contour>
      <point x="39.52000000000002" y="259.76" type="line"/>
      <point x="1067.52" y="259.76" type="line"/>
      <point x="1067.52" y="416.48" type="line"/>
      <point x="39.52000000000002" y="416.48" type="line"/>
    </contour>
    <contour>
      <point x="39.52000000000002" y="578.16" type="line"/>
      <point x="1067.52" y="578.16" type="line"/>
      <point x="1067.52" y="734.88" type="line"/>
      <point x="39.52000000000002" y="734.88" type="line"/>
    </contour>
    <contour>
      <point x="453.2" y="0.0" type="line"/>
      <point x="654.16" y="0.0" type="line"/>
      <point x="654.16" y="558.4" type="line"/>
      <point x="1108.0" y="1456.0" type="line"/>
      <point x="910.16" y="1456.0" type="line"/>
      <point x="614.6" y="867.52" type="line" smooth="yes"/>
      <point x="598.4" y="835.6"/>
      <point x="572.76" y="777.52"/>
      <point x="560.36" y="747.52" type="qcurve"/>
      <point x="554.04" y="747.52" type="line"/>
      <point x="541.64" y="777.52"/>
      <point x="515.84" y="835.6"/>
      <point x="499.8" y="867.52" type="qcurve" smooth="yes"/>
      <point x="210.64000000000001" y="1456.0" type="line"/>
      <point x="-0.79999999999999" y="1456.0" type="line"/>
      <point x="453.2" y="558.24" type="line"/>
    </contour>
  </outline>
</glyph>
<glyph name="brokenbar" format="2">
  <advance width="602"/>
  <unicode hex="00A6"/>
  <outline>
    <contour>
      <point x="210.0" y="-416.0" type="line"/>
      <point x="390.64" y="-416.0" type="line"/>
      <point x="390.64" y="420.0" type="line"/>
      <point x="210.0" y="420.0" type="line"/>
    </contour>
    <contour>
      <point x="210.0" y="620.0" type="line"/>
      <point x="390.64" y="620.0" type="line"/>
      <point x="390.64" y="1456.0" type="line"/>
      <point x="210.0" y="1456.0" type="line"/>
    </contour>
  </outline>
</glyph>
<glyph name="section" format="2">
  <advance width="1307"/>
  <unicode hex="00A7"/>
  <outline>
    <contour>
      <point x="129.96" y="573.6" type="qcurve" smooth="yes"/>
      <point x="129.96" y="416.6444859813084"/>
      <point x="334.19237704240754" y="249.08316814001853"/>
      <point x="578.2" y="183.2" type="qcurve" smooth="yes"/>
      <point x="820.1296957580922" y="121.47723494697146"/>
      <point x="979.6" y="20.44"/>
      <point x="979.6" y="-67.19999999999999" type="qcurve" smooth="yes"/>
      <point x="979.6" y="-164.34736842105264"/>
      <point x="805.3221158690176" y="-282.8"/>
      <point x="642.6" y="-282.8" type="qcurve" smooth="yes"/>
      <point x="479.0394088669951" y="-282.8"/>
      <point x="297.28000000000003" y="-167.0"/>
      <point x="297.28000000000003" y="-51.199999999999996" type="qcurve" smooth="yes"/>
      <point x="297.28000000000003" y="-39.199999999999996" type="line"/>
      <point x="100.0" y="-39.199999999999996" type="line"/>
      <point x="100.0" y="-51.199999999999996" type="line" smooth="yes"/>
      <point x="100.0" y="-233.41538461538462"/>
      <point x="396.4" y="-446.0"/>
      <point x="642.6" y="-446.0" type="qcurve" smooth="yes"/>
      <point x="888.04" y="-446.0"/>
      <point x="1175.04" y="-233.3048128342246"/>
      <point x="1175.04" y="-67.19999999999999" type="qcurve" smooth="yes"/>
      <point x="1175.04" y="97.77185185185186"/>
      <point x="956.1198521443383" y="277.54403317995565"/>
      <point x="716.48" y="340.2" type="qcurve" smooth="yes"/>
      <point x="478.5279927833597" y="401.98718085257696"/>
      <point x="325.40000000000003" y="495.4592592592592"/>
      <point x="325.40000000000003" y="576.0" type="qcurve" smooth="yes"/>
      <point x="325.40000000000003" y="673.1563981042653"/>
      <point x="474.5777777777778" y="781.0"/>
      <point x="632.28" y="781.0" type="qcurve"/>
      <point x="425.28000000000003" y="900.0" type="line"/>
      <point x="284.2756837126706" y="859.6259192091983"/>
      <point x="129.96" y="691.4666666666667"/>
    </contour>
    <contour>
      <point x="162.24" y="1120.2" type="qcurve" smooth="yes"/>
      <point x="162.24" y="963.2350515463918"/>
      <point x="366.43447789404996" y="795.6989192191926"/>
      <point x="610.48" y="729.8" type="qcurve" smooth="yes"/>
      <point x="852.5694113785703" y="668.0324384947334"/>
      <point x="1011.88" y="565.48"/>
      <point x="1011.88" y="477.0" type="qcurve" smooth="yes"/>
      <point x="1011.88" y="378.70535714285717"/>
      <point x="837.5098989898989" y="259.0"/>
      <point x="674.88" y="259.0" type="qcurve"/>
      <point x="945.28" y="150.0" type="line"/>
      <point x="1065.1110733703053" y="195.87149842547626"/>
      <point x="1207.32" y="367.58532110091744"/>
      <point x="1207.32" y="479.4" type="qcurve" smooth="yes"/>
      <point x="1207.32" y="644.3492134831461"/>
      <point x="988.3664600488903" y="824.157411771943"/>
      <point x="748.76" y="886.8" type="qcurve" smooth="yes"/>
      <point x="510.87222045724707" y="948.5611426064064"/>
      <point x="357.68" y="1040.479012345679"/>
      <point x="357.68" y="1120.2" type="qcurve" smooth="yes"/>
      <point x="357.68" y="1216.2411881188118"/>
      <point x="506.85777777777776" y="1322.8"/>
      <point x="664.56" y="1322.8" type="qcurve" smooth="yes"/>
      <point x="822.1402150537634" y="1322.8"/>
      <point x="981.76" y="1198.3504"/>
      <point x="981.76" y="1096.2" type="qcurve" smooth="yes"/>
      <point x="981.76" y="1085.2" type="line"/>
      <point x="1179.04" y="1085.2" type="line"/>
      <point x="1179.04" y="1096.2" type="line" smooth="yes"/>
      <point x="1179.04" y="1259.2072727272728"/>
      <point x="900.44" y="1486.0"/>
      <point x="664.56" y="1486.0" type="qcurve" smooth="yes"/>
      <point x="428.36" y="1486.0"/>
      <point x="162.24" y="1277.2609418282548"/>
    </contour>
  </outline>
</glyph>
<glyph name="ordfeminine" format="2">
  <advance width="972"/>
  <unicode hex="00AA"/>
  <outline>
    <contour>
      <point x="66.0" y="870.0" type="qcurve" smooth="yes"/>
      <point x="66.0" y="744.0"/>
      <point x="250.6" y="611.0"/>
      <point x="382.84000000000003" y="611.0" type="qcurve" smooth="yes"/>
      <point x="497.1472189349113" y="611.0"/>
      <point x="643.3463857193685" y="688.4007131024387"/>
      <point x="673.8" y="740.0" type="qcurve"/>
      <point x="676.96" y="709.0"/>
      <point x="695.6" y="646.0"/>
      <point x="707.08" y="627.0" type="qcurve"/>
      <point x="882.16" y="627.0" type="line"/>
      <point x="882.16" y="639.0" type="line"/>
      <point x="867.6800000000001" y="674.0"/>
      <point x="851.04" y="764.0"/>
      <point x="851.04" y="815.0" type="qcurve" smooth="yes"/>
      <point x="851.04" y="1192.0" type="line" smooth="yes"/>
      <point x="851.04" y="1333.0"/>
      <point x="661.4" y="1476.0"/>
      <point x="490.04" y="1476.0" type="qcurve" smooth="yes"/>
      <point x="318.44" y="1476.0"/>
      <point x="115.92" y="1323.28"/>
      <point x="115.92" y="1220.8" type="qcurve" smooth="yes"/>
      <point x="115.92" y="1214.8" type="line"/>
      <point x="297.12" y="1214.8" type="line"/>
      <point x="297.12" y="1220.8" type="line" smooth="yes"/>
      <point x="297.12" y="1266.84"/>
      <point x="384.50752293577983" y="1336.4"/>
      <point x="485.88" y="1336.4" type="qcurve" smooth="yes"/>
      <point x="587.5136448598131" y="1336.4"/>
      <point x="670.64" y="1254.72"/>
      <point x="670.64" y="1190.8" type="qcurve" smooth="yes"/>
      <point x="670.64" y="1135.0" type="line"/>
      <point x="469.24" y="1135.0" type="line" smooth="yes"/>
      <point x="293.8" y="1135.0"/>
      <point x="66.0" y="996.0"/>
    </contour>
    <contour>
      <point x="247.52" y="878.0" type="qcurve" smooth="yes"/>
      <point x="247.52" y="937.2561702127659"/>
      <point x="368.3271942446043" y="1008.4"/>
      <point x="485.88" y="1008.4" type="qcurve" smooth="yes"/>
      <point x="670.64" y="1008.4" type="line"/>
      <point x="670.64" y="914.2" type="line"/>
      <point x="670.64" y="855.52"/>
      <point x="520.7704964539007" y="751.8"/>
      <point x="428.8" y="751.8" type="qcurve" smooth="yes"/>
      <point x="335.90628571428573" y="751.8"/>
      <point x="247.52" y="818.250297029703"/>
    </contour>
  </outline>
</glyph>
<glyph name="guillemetleft" format="2">
  <advance width="1180"/>
  <unicode hex="00AB"/>
  <outline>
    <contour>
      <point x="433.15999999999997" y="199.2" type="line"/>
      <point x="621.8" y="199.2" type="line"/>
      <point x="308.96000000000004" y="602.0" type="line"/>
      <point x="621.8" y="1004.8" type="line"/>
      <point x="433.15999999999997" y="1004.8" type="line"/>
      <point x="72.0" y="612.0" type="line"/>
      <point x="72.0" y="592.0" type="line"/>
    </contour>
    <contour>
      <point x="925.16" y="199.2" type="line"/>
      <point x="1113.8" y="199.2" type="line"/>
      <point x="800.96" y="602.0" type="line"/>
      <point x="1113.8" y="1004.8" type="line"/>
      <point x="925.16" y="1004.8" type="line"/>
      <point x="564.0" y="612.0" type="line"/>
      <point x="564.0" y="592.0" type="line"/>
    </contour>
  </outline>
</glyph>
<glyph name="macron" format="2">
  <advance width="1049"/>
  <unicode hex="00AF"/>
  <outline>
    <contour>
      <point x="196.0" y="1174.08" type="line"/>
      <point x="852.96" y="1174.08" type="line"/>
      <point x="852.96" y="1338.4" type="line"/>
      <point x="196.0" y="1338.4" type="line"/>
    </contour>
  </outline>
</glyph>
<glyph name="mu.math" format="2">
  <advance width="1207"/>
  <unicode hex="00B5"/>
  <outline>
    <contour>
      <point x="148.0" y="-416.0" type="line"/>
      <point x="338.32" y="-416.0" type="line"/>
      <point x="338.32" y="52.959999999999994" type="line"/>
      <point x="378.72" y="19.36"/>
      <point x="490.4" y="-20.0"/>
      <point x="553.36" y="-20.0" type="qcurve" smooth="yes"/>
      <point x="650.6" y="-20.0"/>
      <point x="806.04" y="71.92"/>
      <point x="863.92" y="144.44" type="qcurve"/>
      <point x="869.92" y="144.44" type="line"/>
      <point x="878.4" y="0.0" type="line"/>
      <point x="1058.72" y="0.0" type="line"/>
      <point x="1058.72" y="1089.12" type="line"/>
      <point x="860.4" y="1089.12" type="line"/>
      <point x="860.4" y="335.44" type="line"/>
      <point x="821.44" y="254.32"/>
      <point x="675.52" y="149.68"/>
      <point x="579.48" y="149.68" type="qcurve" smooth="yes"/>
      <point x="467.64" y="149.68"/>
      <point x="346.32" y="265.40000000000003"/>
      <point x="346.32" y="399.08" type="qcurve" smooth="yes"/>
      <point x="346.32" y="1089.12" type="line"/>
      <point x="148.0" y="1089.12" type="line"/>
    </contour>
  </outline>
</glyph>
<glyph name="cedilla" format="2">
  <advance width="1024"/>
  <unicode hex="00B8"/>
  <outline>
    <contour>
      <point x="451.6" y="0.0" type="line"/>
      <point x="391.6" y="-215.0" type="line"/>
      <point x="508.15999999999997" y="-215.0"/>
      <point x="607.76" y="-260.0"/>
      <point x="607.76" y="-300.0" type="qcurve" smooth="yes"/>
      <point x="607.76" y="-350.0"/>
      <point x="457.12" y="-408.0"/>
      <point x="287.36" y="-408.0" type="qcurve"/>
      <point x="295.36" y="-542.24" type="line"/>
      <point x="573.2" y="-542.24"/>
      <point x="780.56" y="-402.64406779661016"/>
      <point x="780.56" y="-300.0" type="qcurve" smooth="yes"/>
      <point x="780.56" y="-218.4"/>
      <point x="663.88" y="-127.76"/>
      <point x="557.88" y="-111.88" type="qcurve"/>
      <point x="598.4" y="0.0" type="line"/>
    </contour>
  </outline>
</glyph>
<glyph name="ordmasculine" format="2">
  <advance width="994"/>
  <unicode hex="00BA"/>
  <outline>
    <contour>
      <point x="60.0" y="1027.0" type="line" smooth="yes"/>
      <point x="60.0" y="840.0"/>
      <point x="297.64" y="603.0"/>
      <point x="496.88" y="603.0" type="qcurve" smooth="yes"/>
      <point x="695.96" y="603.0"/>
      <point x="933.6" y="840.0"/>
      <point x="933.6" y="1027.0" type="qcurve" smooth="yes"/>
      <point x="933.6" y="1052.0" type="line" smooth="yes"/>
      <point x="933.6" y="1239.0"/>
      <point x="695.96" y="1476.0"/>
      <point x="496.88" y="1476.0" type="qcurve" smooth="yes"/>
      <point x="297.64" y="1476.0"/>
      <point x="60.0" y="1239.0"/>
      <point x="60.0" y="1052.0" type="qcurve" smooth="yes"/>
    </contour>
    <contour>
      <point x="240.4" y="1052.0" type="line" smooth="yes"/>
      <point x="240.4" y="1167.2484507042252"/>
      <point x="369.66293333333334" y="1328.8"/>
      <point x="496.88" y="1328.8" type="qcurve" smooth="yes"/>
      <point x="623.8352" y="1328.8"/>
      <point x="753.2" y="1167.2484507042252"/>
      <point x="753.2" y="1052.0" type="qcurve" smooth="yes"/>
      <point x="753.2" y="1027.0" type="line" smooth="yes"/>
      <point x="753.2" y="911.7515492957747"/>
      <point x="623.8352" y="750.2"/>
      <point x="496.88" y="750.2" type="qcurve" smooth="yes"/>
      <point x="369.66293333333334" y="750.2"/>
      <point x="240.4" y="911.7515492957747"/>
      <point x="240.4" y="1027.0" type="qcurve" smooth="yes"/>
    </contour>
  </outline>
</glyph>
<glyph name="questiondown" format="2">
  <advance width="996"/>
  <unicode hex="00BF"/>
  <outline>
    <contour>
      <point x="76.88000000000001" y="82.0" type="qcurve" smooth="yes"/>
      <point x="76.88000000000001" y="-88.16"/>
      <point x="306.64" y="-300.0"/>
      <point x="510.88" y="-300.0" type="qcurve" smooth="yes"/>
      <point x="714.88" y="-300.0"/>
      <point x="951.2" y="-98.16"/>
      <point x="951.2" y="67.60000000000001" type="qcurve" smooth="yes"/>
      <point x="951.2" y="90.0" type="line"/>
      <point x="752.2" y="90.0" type="line"/>
      <point x="752.2" y="67.60000000000001" type="line" smooth="yes"/>
      <point x="752.2" y="-22.959999999999994"/>
      <point x="628.88" y="-126.24"/>
      <point x="510.88" y="-126.24" type="qcurve" smooth="yes"/>
      <point x="392.72" y="-126.24"/>
      <point x="276.8" y="-14.159999999999993"/>
      <point x="276.8" y="82.0" type="qcurve" smooth="yes"/>
      <point x="276.8" y="179.44"/>
      <point x="385.36" y="309.76"/>
      <point x="474.08000000000004" y="389.52" type="qcurve" smooth="yes"/>
      <point x="574.4" y="477.84"/>
      <point x="647.36" y="626.48"/>
      <point x="647.36" y="751.2" type="qcurve" smooth="yes"/>
      <point x="647.36" y="761.2" type="line"/>
      <point x="447.44" y="761.2" type="line"/>
      <point x="447.44" y="751.2" type="line" smooth="yes"/>
      <point x="447.44" y="681.76"/>
      <point x="399.16" y="559.92"/>
      <point x="306.24" y="482.72" type="qcurve" smooth="yes"/>
      <point x="227.68" y="419.2"/>
      <point x="76.88000000000001" y="214.56"/>
    </contour>
    <contour>
      <point x="407.92" y="1070.36" type="qcurve" smooth="yes"/>
      <point x="407.92" y="1017.76"/>
      <point x="475.52" y="942.72"/>
      <point x="538.88" y="942.72" type="qcurve" smooth="yes"/>
      <point x="602.24" y="942.72"/>
      <point x="669.84" y="1017.76"/>
      <point x="669.84" y="1070.36" type="qcurve" smooth="yes"/>
      <point x="669.84" y="1122.96"/>
      <point x="602.24" y="1198.0"/>
      <point x="538.88" y="1198.0" type="qcurve" smooth="yes"/>
      <point x="475.52" y="1198.0"/>
      <point x="407.92" y="1122.96"/>
    </contour>
  </outline>
</glyph>
<glyph name="multiply" format="2">
  <advance width="1170"/>
  <unicode hex="00D7"/>
  <outline>
    <contour>
      <point x="118.08000000000001" y="324.48" type="line"/>
      <point x="240.4" y="194.0" type="line"/>
      <point x="1051.92" y="1025.52" type="line"/>
      <point x="929.6" y="1156.0" type="line"/>
    </contour>
    <contour>
      <point x="117.84" y="1023.16" type="line"/>
      <point x="928.36" y="193.64000000000001" type="line"/>
      <point x="1052.16" y="326.84000000000003" type="line"/>
      <point x="241.64000000000001" y="1156.36" type="line"/>
    </contour>
  </outline>
</glyph>
<glyph name="Thorn" format="2">
  <advance width="1314"/>
  <unicode hex="00DE"/>
  <outline>
    <contour>
      <point x="170.0" y="0.0" type="line"/>
      <point x="374.64" y="0.0" type="line"/>
      <point x="374.64" y="284.36" type="line"/>
      <point x="690.4" y="284.36" type="line" smooth="yes"/>
      <point x="943.04" y="284.36"/>
      <point x="1214.48" y="532.6"/>
      <point x="1214.48" y="735.6" type="qcurve" smooth="yes"/>
      <point x="1214.48" y="938.6"/>
      <point x="943.04" y="1182.84"/>
      <point x="690.4" y="1182.84" type="qcurve" smooth="yes"/>
      <point x="374.64" y="1182.84" type="line"/>
      <point x="374.64" y="1456.0" type="line"/>
      <point x="170.0" y="1456.0" type="line"/>
    </contour>
    <contour>
      <point x="374.64" y="455.8" type="line"/>
      <point x="374.64" y="1011.4" type="line"/>
      <point x="690.4" y="1011.4" type="line" smooth="yes"/>
      <point x="867.92" y="1011.4"/>
      <point x="1009.84" y="852.6"/>
      <point x="1009.84" y="735.6" type="qcurve" smooth="yes"/>
      <point x="1009.84" y="618.6"/>
      <point x="867.92" y="455.8"/>
      <point x="690.4" y="455.8" type="qcurve" smooth="yes"/>
    </contour>
  </outline>
</glyph>
<glyph name="germandbls" format="2">
  <advance width="1275"/>
  <unicode hex="00DF"/>
  <outline>
    <contour>
      <point x="140.0" y="0.0" type="line"/>
      <point x="338.32" y="0.0" type="line"/>
      <point x="338.32" y="1105.2" type="line" smooth="yes"/>
      <point x="338.32" y="1251.0233009708738"/>
      <point x="460.7994007490637" y="1391.04"/>
      <point x="568.32" y="1391.04" type="qcurve" smooth="yes"/>
      <point x="675.6121810699589" y="1391.04"/>
      <point x="776.56" y="1282.56"/>
      <point x="776.56" y="1206.4" type="qcurve" smooth="yes"/>
      <point x="776.56" y="1151.36"/>
      <point x="738.893030976101" y="1066.4609485682402"/>
      <point x="714.16" y="1029.0" type="qcurve" smooth="yes"/>
      <point x="685.1667082046612" y="984.16291054885"/>
      <point x="633.92" y="888.0"/>
      <point x="633.92" y="822.0" type="qcurve" smooth="yes"/>
      <point x="633.92" y="730.0"/>
      <point x="730.6" y="603.0"/>
      <point x="792.0" y="553.0" type="qcurve" smooth="yes"/>
      <point x="864.6788262506285" y="494.2543410974196"/>
      <point x="996.84" y="386.8"/>
      <point x="996.84" y="312.8" type="qcurve" smooth="yes"/>
      <point x="996.84" y="238.8"/>
      <point x="884.71375" y="144.96"/>
      <point x="777.92" y="144.96" type="qcurve" smooth="yes"/>
      <point x="700.56" y="144.96"/>
      <point x="568.48" y="194.84"/>
      <point x="533.04" y="218.96" type="qcurve"/>
      <point x="470.64" y="60.0" type="line"/>
      <point x="512.24" y="30.0"/>
      <point x="686.0" y="-20.0"/>
      <point x="790.0" y="-20.0" type="qcurve" smooth="yes"/>
      <point x="964.0" y="-20.0"/>
      <point x="1195.2" y="150.0"/>
      <point x="1195.2" y="316.0" type="qcurve" smooth="yes"/>
      <point x="1195.2" y="436.0"/>
      <point x="1030.8" y="593.0"/>
      <point x="950.76" y="657.0" type="qcurve" smooth="yes"/>
      <point x="904.0" y="695.0"/>
      <point x="831.12" y="769.0"/>
      <point x="831.12" y="820.0" type="qcurve" smooth="yes"/>
      <point x="831.12" y="867.0"/>
      <point x="867.5600000000001" y="939.0"/>
      <point x="890.36" y="975.0" type="qcurve" smooth="yes"/>
      <point x="917.48" y="1019.0"/>
      <point x="965.24" y="1130.0"/>
      <point x="965.24" y="1220.0" type="qcurve" smooth="yes"/>
      <point x="965.24" y="1360.0"/>
      <point x="751.2813008130081" y="1556.0"/>
      <point x="568.32" y="1556.0" type="qcurve" smooth="yes"/>
      <point x="386.4" y="1556.0"/>
      <point x="140.0" y="1327.5677130044844"/>
      <point x="140.0" y="1105.2" type="qcurve" smooth="yes"/>
    </contour>
  </outline>
</glyph>
<glyph name="ae" format="2">
  <advance width="1774"/>
  <unicode hex="00E6"/>
  <outline>
    <contour>
      <point x="90.0" y="321.2" type="qcurve" smooth="yes"/>
      <point x="90.0" y="156.08"/>
      <point x="313.36" y="-19.68"/>
      <point x="472.72" y="-19.68" type="qcurve" smooth="yes"/>
      <point x="634.32" y="-19.68"/>
      <point x="831.84" y="97.28"/>
      <point x="895.28" y="174.07999999999998" type="qcurve"/>
      <point x="955.2" y="79.92"/>
      <point x="1159.4" y="-30.0"/>
      <point x="1297.28" y="-30.0" type="qcurve" smooth="yes"/>
      <point x="1447.84" y="-30.0"/>
      <point x="1658.32" y="105.84"/>
      <point x="1709.48" y="181.72" type="qcurve"/>
      <point x="1581.6399999999999" y="292.72" type="line"/>
      <point x="1535.6961095806982" y="230.75513984103918"/>
      <point x="1396.96" y="133.76000000000002"/>
      <point x="1297.28" y="133.76000000000002" type="qcurve" smooth="yes"/>
      <point x="1136.48" y="133.76000000000002"/>
      <point x="984.16" y="362.2467289719626"/>
      <point x="984.16" y="527.92" type="qcurve" smooth="yes"/>
      <point x="984.16" y="561.2" type="line" smooth="yes"/>
      <point x="984.16" y="726.8732710280374"/>
      <point x="1127.76" y="955.36"/>
      <point x="1264.88" y="955.36" type="qcurve" smooth="yes"/>
      <point x="1401.6" y="955.36"/>
      <point x="1517.56" y="784.5663768115942"/>
      <point x="1517.56" y="656.08" type="qcurve"/>
      <point x="1517.56" y="656.08" type="line"/>
      <point x="901.28" y="656.08" type="line"/>
      <point x="901.28" y="497.04" type="line"/>
      <point x="1720.36" y="497.04" type="line"/>
      <point x="1720.36" y="579.84" type="line" smooth="yes"/>
      <point x="1720.36" y="827.84"/>
      <point x="1483.4" y="1119.12"/>
      <point x="1264.88" y="1119.12" type="qcurve" smooth="yes"/>
      <point x="1158.12" y="1119.12"/>
      <point x="983.96" y="1032.08"/>
      <point x="925.28" y="956.16" type="qcurve"/>
      <point x="882.56" y="1033.96"/>
      <point x="708.64" y="1119.12"/>
      <point x="586.04" y="1119.12" type="qcurve" smooth="yes"/>
      <point x="387.84" y="1119.12"/>
      <point x="154.48" y="924.28"/>
      <point x="154.48" y="794.16" type="qcurve" smooth="yes"/>
      <point x="154.48" y="789.16" type="line"/>
      <point x="351.88" y="789.16" type="line"/>
      <point x="351.88" y="794.16" type="line" smooth="yes"/>
      <point x="351.88" y="859.8189010989012"/>
      <point x="457.24" y="960.08"/>
      <point x="580.72" y="960.08" type="qcurve" smooth="yes"/>
      <point x="701.28" y="960.08"/>
      <point x="800.56" y="840.48"/>
      <point x="800.56" y="744.96" type="qcurve" smooth="yes"/>
      <point x="800.56" y="673.04" type="line"/>
      <point x="570.4" y="673.04" type="line" smooth="yes"/>
      <point x="361.2" y="673.04"/>
      <point x="90.0" y="487.7142245989305"/>
    </contour>
    <contour>
      <point x="288.32" y="331.84" type="qcurve" smooth="yes"/>
      <point x="288.32" y="422.94666666666666"/>
      <point x="441.92" y="530.48"/>
      <point x="591.2" y="530.48" type="qcurve" smooth="yes"/>
      <point x="800.56" y="530.48" type="line"/>
      <point x="800.56" y="384.12" type="line"/>
      <point x="800.56" y="296.31786259541985"/>
      <point x="624.8" y="139.36"/>
      <point x="516.72" y="139.36" type="qcurve" smooth="yes"/>
      <point x="399.36" y="139.36"/>
      <point x="288.32" y="241.54647887323944"/>
    </contour>
  </outline>
</glyph>
<glyph name="divide" format="2">
  <advance width="1170"/>
  <unicode hex="00F7"/>
  <outline>
    <contour>
      <point x="66.96000000000001" y="585.04" type="line"/>
      <point x="1103.04" y="585.04" type="line"/>
      <point x="1103.04" y="762.96" type="line"/>
      <point x="66.96000000000001" y="762.96" type="line"/>
    </contour>
    <contour>
      <point x="454.04" y="286.44" type="qcurve" smooth="yes"/>
      <point x="454.04" y="233.84"/>
      <point x="521.64" y="158.79999999999998"/>
      <point x="585.0" y="158.79999999999998" type="qcurve" smooth="yes"/>
      <point x="648.36" y="158.79999999999998"/>
      <point x="715.96" y="233.84"/>
      <point x="715.96" y="286.44" type="qcurve" smooth="yes"/>
      <point x="715.96" y="339.04"/>
      <point x="648.36" y="414.08"/>
      <point x="585.0" y="414.08" type="qcurve" smooth="yes"/>
      <point x="521.64" y="414.08"/>
      <point x="454.04" y="339.04"/>
    </contour>
    <contour>
      <point x="454.04" y="1061.56" type="qcurve" smooth="yes"/>
      <point x="454.04" y="1008.96"/>
      <point x="521.64" y="933.92"/>
      <point x="585.0" y="933.92" type="qcurve" smooth="yes"/>
      <point x="648.36" y="933.92"/>
      <point x="715.96" y="1008.96"/>
      <point x="715.96" y="1061.56" type="qcurve" smooth="yes"/>
      <point x="715.96" y="1114.16"/>
      <point x="648.36" y="1189.2"/>
      <point x="585.0" y="1189.2" type="qcurve" smooth="yes"/>
      <point x="521.64" y="1189.2"/>
      <point x="454.04" y="1114.16"/>
    </contour>
  </outline>
</glyph>
<glyph name="oslash" format="2">
  <advance width="1227"/>
  <unicode hex="00F8"/>
  <outline>
    <contour>
      <point x="85.0" y="528.56" type="line" smooth="yes"/>
      <point x="85.0" y="282.24"/>
      <point x="372.84000000000003" y="-30.0"/>
      <point x="613.64" y="-30.0" type="qcurve" smooth="yes"/>
      <point x="854.6" y="-30.0"/>
      <point x="1142.28" y="282.24"/>
      <point x="1142.28" y="528.56" type="qcurve" smooth="yes"/>
      <point x="1142.28" y="560.56" type="line" smooth="yes"/>
      <point x="1142.28" y="806.5600000000001"/>
      <point x="854.6" y="1119.12"/>
      <point x="613.64" y="1119.12" type="qcurve" smooth="yes"/>
      <point x="372.84000000000003" y="1119.12"/>
      <point x="85.0" y="806.5600000000001"/>
      <point x="85.0" y="560.56" type="qcurve" smooth="yes"/>
    </contour>
    <contour>
      <point x="295.48" y="560.56" type="line" smooth="yes"/>
      <point x="295.48" y="725.56"/>
      <point x="455.56" y="952.96"/>
      <point x="613.64" y="952.96" type="qcurve" smooth="yes"/>
      <point x="771.72" y="952.96"/>
      <point x="931.96" y="725.56"/>
      <point x="931.96" y="560.56" type="qcurve" smooth="yes"/>
      <point x="931.96" y="528.56" type="line" smooth="yes"/>
      <point x="931.96" y="363.88"/>
      <point x="771.72" y="136.16000000000003"/>
      <point x="613.64" y="136.16000000000003" type="qcurve" smooth="yes"/>
      <point x="455.56" y="136.16000000000003"/>
      <point x="295.48" y="363.88"/>
      <point x="295.48" y="528.56" type="qcurve" smooth="yes"/>
    </contour>
    <contour>
      <point x="151.28" y="-120.0" type="line"/>
      <point x="330.24" y="-120.0" type="line"/>
      <point x="437.52" y="73.44" type="line"/>
      <point x="432.36" y="73.44" type="line"/>
      <point x="693.04" y="544.56" type="line"/>
      <point x="534.56" y="544.56" type="line"/>
      <point x="315.64" y="157.68" type="line"/>
      <point x="310.48" y="157.68" type="line"/>
    </contour>
    <contour>
      <point x="534.56" y="544.56" type="line"/>
      <point x="693.04" y="544.56" type="line"/>
      <point x="911.96" y="931.44" type="line"/>
      <point x="916.96" y="931.44" type="line"/>
      <point x="1076.0" y="1209.12" type="line"/>
      <point x="897.04" y="1209.12" type="line"/>
      <point x="790.4" y="1015.6800000000001" type="line"/>
      <point x="795.4" y="1015.6800000000001" type="line"/>
    </contour>
  </outline>
</glyph>
<glyph name="dotlessi" format="2">
  <advance width="512"/>
  <unicode hex="0131"/>
  <anchor x="250" y="1052" name="top"/>
  <outline>
    <contour>
      <point x="157.0" y="0.0" type="line"/>
      <point x="355.32" y="0.0" type="line"/>
      <point x="355.32" y="1089.12" type="line"/>
      <point x="157.0" y="1089.12" type="line"/>
    </contour>
  </outline>
</glyph>
<glyph name="circumflex" format="2">
  <advance width="1050"/>
  <unicode hex="02C6"/>
  <outline>
    <contour>
      <point x="180.0" y="1156.0" type="line"/>
      <point x="358.4" y="1156.0" type="line"/>
      <point x="524.96" y="1320.0" type="line"/>
      <point x="691.52" y="1156.0" type="line"/>
      <point x="869.92" y="1156.0" type="line"/>
      <point x="608.96" y="1456.0" type="line"/>
      <point x="440.96" y="1456.0" type="line"/>
    </contour>
  </outline>
</glyph>
<glyph name="ring" format="2">
  <advance width="1043"/>
  <unicode hex="02DA"/>
  <outline>
    <contour>
      <point x="264.32" y="1362.2" type="qcurve" smooth="yes"/>
      <point x="264.32" y="1260.08"/>
      <point x="414.4" y="1126.0"/>
      <point x="521.6" y="1126.0" type="qcurve" smooth="yes"/>
      <point x="628.8" y="1126.0"/>
      <point x="778.88" y="1260.08"/>
      <point x="778.88" y="1362.2" type="qcurve" smooth="yes"/>
      <point x="778.88" y="1464.32"/>
      <point x="628.8" y="1598.4"/>
      <point x="521.6" y="1598.4" type="qcurve" smooth="yes"/>
      <point x="414.4" y="1598.4"/>
      <point x="264.32" y="1464.32"/>
    </contour>
    <contour>
      <point x="396.0" y="1362.2" type="qcurve" smooth="yes"/>
      <point x="396.0" y="1412.84"/>
      <point x="467.44" y="1478.24"/>
      <point x="521.6" y="1478.24" type="qcurve" smooth="yes"/>
      <point x="575.76" y="1478.24"/>
      <point x="647.2" y="1412.84"/>
      <point x="647.2" y="1362.2" type="qcurve" smooth="yes"/>
      <point x="647.2" y="1311.56"/>
      <point x="575.76" y="1246.16"/>
      <point x="521.6" y="1246.16" type="qcurve" smooth="yes"/>
      <point x="467.44" y="1246.16"/>
      <point x="396.0" y="1311.56"/>
    </contour>
  </outline>
</glyph>
<glyph name="tilde" format="2">
  <advance width="1052"/>
  <unicode hex="02DC"/>
  <anchor x="512" y="1052" name="_top"/>
  <outline>
    <contour>
      <point x="152.0" y="1152.32" type="qcurve"/>
      <point x="284.0" y="1143.2" type="line"/>
      <point x="284.0" y="1191.2"/>
      <point x="330.0" y="1253.2"/>
      <point x="380.0" y="1253.2" type="qcurve" smooth="yes"/>
      <point x="436.48" y="1253.2"/>
      <point x="604.48" y="1155.2"/>
      <point x="687.36" y="1155.2" type="qcurve" smooth="yes"/>
      <point x="779.4399999999999" y="1155.2"/>
      <point x="902.16" y="1300.3251612903225"/>
      <point x="902.16" y="1410.08" type="qcurve"/>
      <point x="770.16" y="1419.2" type="line"/>
      <point x="770.16" y="1371.2"/>
      <point x="724.16" y="1309.2"/>
      <point x="674.16" y="1309.2" type="qcurve" smooth="yes"/>
      <point x="617.68" y="1309.2"/>
      <point x="449.68" y="1407.2"/>
      <point x="366.8" y="1407.2" type="qcurve" smooth="yes"/>
      <point x="274.71999999999997" y="1407.2"/>
      <point x="152.0" y="1262.1987096774194"/>
    </contour>
  </outline>
</glyph>
<glyph name="emdash" format="2">
  <advance width="1664"/>
  <unicode hex="2014"/>
  <outline>
    <contour>
      <point x="80.0" y="538.72" type="line"/>
      <point x="1584.0" y="538.72" type="line"/>
      <point x="1584.0" y="721.28" type="line"/>
      <point x="80.0" y="721.28" type="line"/>
    </contour>
  </outline>
</glyph>
<glyph name="quoteright" format="2">
  <advance width="449"/>
  <unicode hex="2019"/>
  <outline>
    <contour>
      <point x="38.0" y="1027.36" type="qcurve"/>
      <point x="148.92000000000002" y="947.52" type="line"/>
      <point x="230.32" y="1017.04"/>
      <point x="328.64" y="1209.44"/>
      <point x="328.64" y="1324.24" type="qcurve" smooth="yes"/>
      <point x="328.64" y="1456.0" type="line"/>
      <point x="140.0" y="1456.0" type="line"/>
      <point x="140.0" y="1324.24" type="line" smooth="yes"/>
      <point x="140.0" y="1231.6"/>
      <point x="87.2" y="1093.04"/>
    </contour>
  </outline>
</glyph>
<glyph name="quotedblleft" format="2">
  <advance width="837"/>
  <unicode hex="201C"/>
  <outline>
    <contour>
      <point x="120.0" y="1031.6" type="line"/>
      <point x="308.64" y="1031.6" type="line"/>
      <point x="308.64" y="1163.36" type="line" smooth="yes"/>
      <point x="308.64" y="1256.0"/>
      <point x="361.44" y="1394.56"/>
      <point x="410.64" y="1460.24" type="qcurve"/>
      <point x="299.72" y="1540.08" type="line"/>
      <point x="218.32" y="1470.56"/>
      <point x="120.0" y="1278.16"/>
      <point x="120.0" y="1163.36" type="qcurve" smooth="yes"/>
    </contour>
    <contour>
      <point x="508.64" y="1031.6" type="line"/>
      <point x="697.28" y="1031.6" type="line"/>
      <point x="697.28" y="1163.36" type="line" smooth="yes"/>
      <point x="697.28" y="1256.0"/>
      <point x="750.08" y="1394.56"/>
      <point x="799.28" y="1460.24" type="qcurve"/>
      <point x="688.36" y="1540.08" type="line"/>
      <point x="606.96" y="1470.56"/>
      <point x="508.64" y="1278.16"/>
      <point x="508.64" y="1163.36" type="qcurve" smooth="yes"/>
    </contour>
  </outline>
</glyph>
<glyph name="quotedblright" format="2">
  <advance width="837"/>
  <unicode hex="201D"/>
  <outline>
    <contour>
      <point x="38.0" y="1027.36" type="qcurve"/>
      <point x="148.92000000000002" y="947.52" type="line"/>
      <point x="230.32" y="1017.04"/>
      <point x="328.64" y="1209.44"/>
      <point x="328.64" y="1324.24" type="qcurve" smooth="yes"/>
      <point x="328.64" y="1456.0" type="line"/>
      <point x="140.0" y="1456.0" type="line"/>
      <point x="140.0" y="1324.24" type="line" smooth="yes"/>
      <point x="140.0" y="1231.6"/>
      <point x="87.2" y="1093.04"/>
    </contour>
    <contour>
      <point x="426.64" y="1027.36" type="qcurve"/>
      <point x="537.5600000000001" y="947.52" type="line"/>
      <point x="618.96" y="1017.04"/>
      <point x="717.28" y="1209.44"/>
      <point x="717.28" y="1324.24" type="qcurve" smooth="yes"/>
      <point x="717.28" y="1456.0" type="line"/>
      <point x="528.64" y="1456.0" type="line"/>
      <point x="528.64" y="1324.24" type="line" smooth="yes"/>
      <point x="528.64" y="1231.6"/>
      <point x="475.84000000000003" y="1093.04"/>
    </contour>
  </outline>
</glyph>
<glyph name="dagger" format="2">
  <advance width="1143"/>
  <unicode hex="2020"/>
  <outline>
    <contour>
      <point x="515.0" y="-220.0" type="line"/>
      <point x="627.8" y="-220.0" type="line"/>
      <point x="677.8" y="519.2" type="line"/>
      <point x="642.8" y="1015.2" type="line"/>
      <point x="682.8" y="1516.0" type="line"/>
      <point x="460.0" y="1516.0" type="line"/>
      <point x="500.0" y="1015.2" type="line"/>
      <point x="465.0" y="519.2" type="line"/>
    </contour>
    <contour>
      <point x="50.16000000000001" y="919.2" type="line"/>
      <point x="571.4" y="939.2" type="line"/>
      <point x="1092.64" y="919.2" type="line"/>
      <point x="1092.64" y="1120.0" type="line"/>
      <point x="571.4" y="1100.0" type="line"/>
      <point x="50.16000000000001" y="1120.0" type="line"/>
    </contour>
  </outline>
</glyph>
<glyph name="bullet" format="2">
  <advance width="773"/>
  <unicode hex="2022"/>
  <outline>
    <contour>
      <point x="164.0" y="732.8" type="line" smooth="yes"/>
      <point x="164.0" y="641.64"/>
      <point x="288.8" y="522.92"/>
      <point x="386.56" y="522.92" type="qcurve" smooth="yes"/>
      <point x="484.32" y="522.92"/>
      <point x="609.12" y="641.64"/>
      <point x="609.12" y="732.8" type="qcurve" smooth="yes"/>
      <point x="609.12" y="775.2" type="line" smooth="yes"/>
      <point x="609.12" y="866.36"/>
      <point x="484.32" y="985.08"/>
      <point x="386.56" y="985.08" type="qcurve" smooth="yes"/>
      <point x="288.8" y="985.08"/>
      <point x="164.0" y="866.36"/>
      <point x="164.0" y="775.2" type="qcurve" smooth="yes"/>
    </contour>
  </outline>
</glyph>
<glyph name="ellipsis" format="2">
  <advance width="1784"/>
  <unicode hex="2026"/>
  <outline>
    <contour>
      <point x="160.0" y="112.0" type="qcurve" smooth="yes"/>
      <point x="160.0" y="56.28"/>
      <point x="230.76" y="-22.0"/>
      <point x="297.28000000000003" y="-22.0" type="qcurve" smooth="yes"/>
      <point x="363.8" y="-22.0"/>
      <point x="434.56" y="56.28"/>
      <point x="434.56" y="112.0" type="qcurve" smooth="yes"/>
      <point x="434.56" y="167.72"/>
      <point x="363.8" y="246.0"/>
      <point x="297.28000000000003" y="246.0" type="qcurve" smooth="yes"/>
      <point x="230.76" y="246.0"/>
      <point x="160.0" y="167.72"/>
    </contour>
    <contour>
      <point x="754.5600000000001" y="112.0" type="qcurve" smooth="yes"/>
      <point x="754.5600000000001" y="56.28"/>
      <point x="825.32" y="-22.0"/>
      <point x="891.84" y="-22.0" type="qcurve" smooth="yes"/>
      <point x="958.36" y="-22.0"/>
      <point x="1029.1200000000001" y="56.28"/>
      <point x="1029.1200000000001" y="112.0" type="qcurve" smooth="yes"/>
      <point x="1029.1200000000001" y="167.72"/>
      <point x="958.36" y="246.0"/>
      <point x="891.84" y="246.0" type="qcurve" smooth="yes"/>
      <point x="825.32" y="246.0"/>
      <point x="754.5600000000001" y="167.72"/>
    </contour>
    <contour>
      <point x="1349.1200000000001" y="112.0" type="qcurve" smooth="yes"/>
      <point x="1349.1200000000001" y="56.28"/>
      <point x="1419.88" y="-22.0"/>
      <point x="1486.4" y="-22.0" type="qcurve" smooth="yes"/>
      <point x="1552.92" y="-22.0"/>
      <point x="1623.68" y="56.28"/>
      <point x="1623.68" y="112.0" type="qcurve" smooth="yes"/>
      <point x="1623.68" y="167.72"/>
      <point x="1552.92" y="246.0"/>
      <point x="1486.4" y="246.0" type="qcurve" smooth="yes"/>
      <point x="1419.88" y="246.0"/>
      <point x="1349.1200000000001" y="167.72"/>
    </contour>
  </outline>
</glyph>
<glyph name="guilsinglleft" format="2">
  <advance width="686"/>
  <unicode hex="2039"/>
  <outline>
    <contour>
      <point x="433.15999999999997" y="199.2" type="line"/>
      <point x="621.8" y="199.2" type="line"/>
      <point x="308.96000000000004" y="602.0" type="line"/>
      <point x="621.96" y="1004.8" type="line"/>
      <point x="433.15999999999997" y="1004.8" type="line"/>
      <point x="72.0" y="612.0" type="line"/>
      <point x="72.0" y="592.0" type="line"/>
    </contour>
  </outline>
</glyph>
<glyph name="guilsinglright" format="2">
  <advance width="685"/>
  <unicode hex="203A"/>
  <outline>
    <contour>
      <point x="252.08" y="199.2" type="line"/>
      <point x="613.4" y="592.0" type="line"/>
      <point x="613.4" y="612.0" type="line"/>
      <point x="252.08" y="1004.8" type="line"/>
      <point x="63.599999999999994" y="1004.8" type="line"/>
      <point x="376.44" y="602.0" type="line"/>
      <point x="63.599999999999994" y="199.2" type="line"/>
    </contour>
  </outline>
</glyph>
<glyph name="fraction" format="2">
  <advance width="1117"/>
  <unicode hex="2044"/>
  <outline>
    <contour>
      <point x="30.0" y="66.24000000000001" type="line"/>
      <point x="169.6" y="-30.0" type="line"/>
      <point x="1087.08" y="1389.76" type="line"/>
      <point x="947.48" y="1486.0" type="line"/>
    </contour>
  </outline>
</glyph>
<glyph name="numero" format="2">
  <advance width="2609"/>
  <unicode hex="2116"/>
  <outline>
    <contour>
      <point x="170.0" y="0.0" type="line"/>
      <point x="366.96000000000004" y="0.0" type="line"/>
      <point x="366.96000000000004" y="985.6" type="line" smooth="yes"/>
      <point x="366.96000000000004" y="1015.6"/>
      <point x="362.96000000000004" y="1090.6"/>
      <point x="358.96000000000004" y="1120.6" type="qcurve"/>
      <point x="368.96000000000004" y="1120.6" type="line"/>
      <point x="382.96000000000004" y="1095.6"/>
      <point x="418.84000000000003" y="1036.6399999999999"/>
      <point x="438.88" y="1005.76" type="qcurve" smooth="yes"/>
      <point x="1087.68" y="0.0" type="line"/>
      <point x="1304.8" y="0.0" type="line"/>
      <point x="1304.8" y="1456.0" type="line"/>
      <point x="1107.84" y="1456.0" type="line"/>
      <point x="1107.84" y="470.40000000000003" type="line" smooth="yes"/>
      <point x="1107.84" y="440.40000000000003"/>
      <point x="1111.84" y="364.12"/>
      <point x="1115.84" y="335.40000000000003" type="qcurve"/>
      <point x="1105.84" y="335.40000000000003" type="line"/>
      <point x="1091.84" y="360.40000000000003"/>
      <point x="1054.8799999999999" y="420.40000000000003"/>
      <point x="1035.76" y="450.40000000000003" type="qcurve" smooth="yes"/>
      <point x="387.28000000000003" y="1456.0" type="line"/>
      <point x="170.0" y="1456.0" type="line"/>
    </contour>
    <contour>
      <point x="1512.8" y="124.0" type="line"/>
      <point x="1512.8" y="300.4" type="line"/>
      <point x="2447.2" y="300.4" type="line"/>
      <point x="2447.2" y="124.0" type="line"/>
    </contour>
    <contour>
      <point x="1471.2" y="964.0" type="qcurve" smooth="yes"/>
      <point x="1471.2" y="984.0" type="line" smooth="yes"/>
      <point x="1471.2" y="1194.0"/>
      <point x="1741.56" y="1476.0"/>
      <point x="1980.0" y="1476.0" type="qcurve" smooth="yes"/>
      <point x="2218.44" y="1476.0"/>
      <point x="2488.8" y="1194.0"/>
      <point x="2488.8" y="984.0" type="qcurve" smooth="yes"/>
      <point x="2488.8" y="964.0" type="line" smooth="yes"/>
      <point x="2488.8" y="754.0"/>
      <point x="2218.44" y="472.0"/>
      <point x="1980.0" y="472.0" type="qcurve" smooth="yes"/>
      <point x="1741.56" y="472.0"/>
      <point x="1471.2" y="754.0"/>
    </contour>
    <contour>
      <point x="1660.8" y="964.0" type="line" smooth="yes"/>
      <point x="1660.8" y="819.16"/>
      <point x="1820.4" y="635.76"/>
      <point x="1980.0" y="635.76" type="qcurve" smooth="yes"/>
      <point x="2139.6" y="635.76"/>
      <point x="2299.2" y="819.16"/>
      <point x="2299.2" y="964.0" type="qcurve" smooth="yes"/>
      <point x="2299.2" y="984.0" type="line" smooth="yes"/>
      <point x="2299.2" y="1128.84"/>
      <point x="2139.6" y="1312.24"/>
      <point x="1980.0" y="1312.24" type="qcurve" smooth="yes"/>
      <point x="1820.4" y="1312.24"/>
      <point x="1660.8" y="1128.84"/>
      <point x="1660.8" y="984.0" type="qcurve" smooth="yes"/>
    </contour>
  </outline>
</glyph>
<glyph name="trademark" format="2">
  <advance width="1665"/>
  <unicode hex="2122"/>
  <outline>
    <contour>
      <point x="276.0" y="820.0" type="line"/>
      <point x="442.16" y="820.0" type="line"/>
      <point x="442.16" y="1304.0" type="line"/>
      <point x="659.68" y="1304.0" type="line"/>
      <point x="659.68" y="1456.0" type="line"/>
      <point x="58.64000000000001" y="1456.0" type="line"/>
      <point x="58.64000000000001" y="1304.0" type="line"/>
      <point x="276.0" y="1304.0" type="line"/>
    </contour>
    <contour>
      <point x="732.4" y="820.0" type="line"/>
      <point x="870.4" y="820.0" type="line"/>
      <point x="870.4" y="1266.0" type="line"/>
      <point x="1067.76" y="820.0" type="line"/>
      <point x="1209.76" y="820.0" type="line"/>
      <point x="1407.44" y="1266.0" type="line"/>
      <point x="1407.44" y="820.0" type="line"/>
      <point x="1555.44" y="820.0" type="line"/>
      <point x="1555.44" y="1456.0" type="line"/>
      <point x="1343.12" y="1456.0" type="line"/>
      <point x="1144.08" y="1001.96" type="line"/>
      <point x="944.88" y="1456.0" type="line"/>
      <point x="732.4" y="1456.0" type="line"/>
    </contour>
  </outline>
</glyph>
<glyph name="divisionslash" format="2">
  <advance width="773"/>
  <unicode hex="2215"/>
  <outline>
    <contour>
      <point x="-50.0" y="-125.0" type="line"/>
      <point x="134.8" y="-125.0" type="line"/>
      <point x="773.2" y="1456.0" type="line"/>
      <point x="588.24" y="1456.0" type="line"/>
    </contour>
  </outline>
</glyph>
<glyph name="f_f_l" format="2">
  <advance width="1855"/>
  <unicode hex="FB04"/>
  <outline>
    <contour>
      <point x="202.88" y="0.0" type="line"/>
      <point x="401.2" y="0.0" type="line"/>
      <point x="401.2" y="1000.04" type="line"/>
      <point x="401.2" y="1022.04" type="line"/>
      <point x="401.2" y="1170.4" type="line" smooth="yes"/>
      <point x="401.2" y="1279.2"/>
      <point x="519.92" y="1388.0"/>
      <point x="639.04" y="1388.0" type="qcurve" smooth="yes"/>
      <point x="697.36" y="1388.0"/>
      <point x="812.3199999999999" y="1363.28"/>
      <point x="861.52" y="1344.32" type="qcurve"/>
      <point x="891.68" y="1510.96" type="line"/>
      <point x="830.12" y="1532.72"/>
      <point x="699.3199999999999" y="1556.0"/>
      <point x="635.04" y="1556.0" type="qcurve" smooth="yes"/>
      <point x="432.15999999999997" y="1556.0"/>
      <point x="202.88" y="1359.08"/>
      <point x="202.88" y="1170.4" type="qcurve" smooth="yes"/>
    </contour>
    <contour>
      <point x="25.0" y="932.96" type="line"/>
      <point x="701.28" y="932.96" type="line"/>
      <point x="701.28" y="1089.12" type="line"/>
      <point x="329.68" y="1089.12" type="line"/>
      <point x="281.76" y="1089.12" type="line"/>
      <point x="25.0" y="1089.12" type="line"/>
    </contour>
    <contour>
      <point x="836.08" y="0.0" type="line"/>
      <point x="1034.4" y="0.0" type="line"/>
      <point x="1034.4" y="1000.04" type="line"/>
      <point x="1034.4" y="1022.04" type="line"/>
      <point x="1034.4" y="1170.4" type="line" smooth="yes"/>
      <point x="1034.4" y="1279.2"/>
      <point x="1150.4" y="1388.0"/>
      <point x="1268.56" y="1388.0" type="qcurve" smooth="yes"/>
      <point x="1337.6" y="1388.0"/>
      <point x="1471.52" y="1354.16"/>
      <point x="1527.76" y="1332.0" type="qcurve"/>
      <point x="1559.76" y="1496.0" type="line"/>
      <point x="1490.4" y="1524.48"/>
      <point x="1338.48" y="1556.0"/>
      <point x="1264.56" y="1556.0" type="qcurve" smooth="yes"/>
      <point x="1063.44" y="1556.0"/>
      <point x="836.08" y="1359.08"/>
      <point x="836.08" y="1170.4" type="qcurve" smooth="yes"/>
    </contour>
    <contour>
      <point x="664.04" y="932.96" type="line"/>
      <point x="1338.56" y="932.96" type="line"/>
      <point x="1338.56" y="1089.12" type="line"/>
      <point x="972.56" y="1089.12" type="line"/>
      <point x="924.64" y="1089.12" type="line"/>
      <point x="664.04" y="1089.12" type="line"/>
    </contour>
    <contour>
      <point x="1500.56" y="0.0" type="line"/>
      <point x="1698.88" y="0.0" type="line"/>
      <point x="1698.88" y="1496.0" type="line"/>
      <point x="1500.56" y="1496.0" type="line"/>
    </contour>
  </outline>
</glyph>
<glyph name="bitcoin" format="2">
  <advance width="1277"/>
  <outline>
    <contour>
      <point x="170.0" y="0.0" type="line"/>
      <point x="665.36" y="0.0" type="line" smooth="yes"/>
      <point x="896.92" y="0.0"/>
      <point x="1177.3600000000001" y="220.0"/>
      <point x="1177.3600000000001" y="420.0" type="qcurve" smooth="yes"/>
      <point x="1177.3600000000001" y="560.0"/>
      <point x="1031.76" y="732.0"/>
      <point x="917.44" y="764.0" type="qcurve"/>
      <point x="917.44" y="768.0" type="line"/>
      <point x="1010.96" y="800.0"/>
      <point x="1137.92" y="950.0"/>
      <point x="1137.92" y="1070.0" type="qcurve" smooth="yes"/>
      <point x="1137.92" y="1270.0"/>
      <point x="869.04" y="1456.0"/>
      <point x="634.24" y="1456.0" type="qcurve" smooth="yes"/>
      <point x="170.0" y="1456.0" type="line"/>
    </contour>
    <contour>
      <point x="370.96000000000004" y="169.04000000000002" type="line"/>
      <point x="370.96000000000004" y="674.96" type="line"/>
      <point x="665.36" y="674.96" type="line" smooth="yes"/>
      <point x="825.44" y="674.96"/>
      <point x="974.72" y="539.28"/>
      <point x="974.72" y="422.88" type="qcurve" smooth="yes"/>
      <point x="974.72" y="306.48"/>
      <point x="825.44" y="169.04000000000002"/>
      <point x="665.36" y="169.04000000000002" type="qcurve" smooth="yes"/>
    </contour>
    <contour>
      <point x="370.96000000000004" y="841.04" type="line"/>
      <point x="370.96000000000004" y="1286.96" type="line"/>
      <point x="634.24" y="1286.96" type="line" smooth="yes"/>
      <point x="794.32" y="1286.96"/>
      <point x="935.12" y="1172.8"/>
      <point x="935.12" y="1066.64" type="qcurve" smooth="yes"/>
      <point x="935.12" y="960.48"/>
      <point x="794.32" y="841.04"/>
      <point x="634.24" y="841.04" type="qcurve" smooth="yes"/>
    </contour>
    <contour>
      <point x="34.88" y="360.36" type="line"/>
      <point x="272.16" y="360.36" type="line"/>
      <point x="276.32" y="366.4" type="line"/>
      <point x="666.48" y="366.4" type="line"/>
      <point x="666.48" y="521.6" type="line"/>
      <point x="276.32" y="521.6" type="line"/>
      <point x="272.16" y="527.64" type="line"/>
      <point x="34.88" y="527.64" type="line"/>
    </contour>
  </outline>
</glyph>
<glyph name="gravecomb.case" format="2">
  <advance width="1024"/>
  <outline>
    <contour>
      <point x="469" y="1579" type="line"/>
      <point x="193" y="1912" type="line"/>
      <point x="360" y="2002" type="line"/>
      <point x="593" y="1654" type="line"/>
    </contour>
  </outline>
</glyph>
<glyph name="three.pnum" format="2">
  <advance width="1160"/>
  <outline>
    <contour>
      <point x="43.27999999999999" y="384.8" type="line" smooth="yes"/>
      <point x="43.27999999999999" y="202.64000000000001"/>
      <point x="329.8045188284519" y="-30.0"/>
      <point x="554.24" y="-30.0" type="qcurve" smooth="yes"/>
      <point x="778.4819834710744" y="-30.0"/>
      <point x="1070.88" y="201.25587583148558"/>
      <point x="1070.88" y="403.28000000000003" type="qcurve" smooth="yes"/>
      <point x="1070.88" y="541.3660997067449"/>
      <point x="911.7046523734704" y="729.6275688933489"/>
      <point x="779.76" y="762.0" type="qcurve"/>
      <point x="779.76" y="766.0" type="line"/>
      <point x="901.7381014129408" y="816.8378349413179"/>
      <point x="1016.96" y="998.32"/>
      <point x="1016.96" y="1097.6" type="qcurve" smooth="yes"/>
      <point x="1016.96" y="1268.68"/>
      <point x="757.8311111111111" y="1486.0"/>
      <point x="554.24" y="1486.0" type="qcurve" smooth="yes"/>
      <point x="350.68164383561646" y="1486.0"/>
      <point x="84.87999999999998" y="1257.24"/>
      <point x="84.87999999999998" y="1095.2" type="qcurve" smooth="yes"/>
      <point x="84.87999999999998" y="1085.2" type="line"/>
      <point x="284.8" y="1085.2" type="line"/>
      <point x="284.8" y="1095.2" type="line" smooth="yes"/>
      <point x="284.8" y="1201.021686746988"/>
      <point x="436.71999999999997" y="1314.56"/>
      <point x="554.24" y="1314.56" type="qcurve" smooth="yes"/>
      <point x="672.24" y="1314.56"/>
      <point x="811.52" y="1201.488219178082"/>
      <point x="811.52" y="1086.4" type="qcurve" smooth="yes"/>
      <point x="811.52" y="971.1666666666666"/>
      <point x="651.6" y="842.48"/>
      <point x="504.32" y="842.48" type="qcurve" smooth="yes"/>
      <point x="387.24" y="842.48" type="line"/>
      <point x="387.24" y="674.56" type="line"/>
      <point x="514.8" y="674.56" type="line" smooth="yes"/>
      <point x="674.24" y="674.56"/>
      <point x="863.6" y="538.6863157894737"/>
      <point x="863.6" y="404.8" type="qcurve" smooth="yes"/>
      <point x="863.6" y="269.34736842105264"/>
      <point x="695.04" y="141.44"/>
      <point x="554.24" y="141.44" type="qcurve" smooth="yes"/>
      <point x="413.6" y="141.44"/>
      <point x="243.2" y="268.9684210526316"/>
      <point x="243.2" y="384.8" type="qcurve" smooth="yes"/>
      <point x="243.2" y="394.8" type="line"/>
      <point x="43.27999999999999" y="394.8" type="line"/>
    </contour>
  </outline>
</glyph>
<glyph name="zerosuperior" format="2">
  <advance width="836"/>
  <outline>
    <contour>
      <point x="67.0" y="1036.0" type="qcurve" smooth="yes"/>
      <point x="67.0" y="1140.0" type="line" smooth="yes"/>
      <point x="67.0" y="1300.0"/>
      <point x="248" y="1496.0"/>
      <point x="418" y="1496.0" type="qcurve" smooth="yes"/>
      <point x="589" y="1496.0"/>
      <point x="769" y="1300.0"/>
      <point x="769" y="1140.0" type="qcurve" smooth="yes"/>
      <point x="769" y="1036.0" type="line" smooth="yes"/>
      <point x="769" y="876.0"/>
      <point x="589" y="680.0"/>
      <point x="418" y="680.0" type="qcurve" smooth="yes"/>
      <point x="248" y="680.0"/>
      <point x="67.0" y="876.0"/>
    </contour>
    <contour>
      <point x="245.0" y="1036.0" type="line" smooth="yes"/>
      <point x="245.0" y="949"/>
      <point x="321" y="837"/>
      <point x="418" y="837" type="qcurve" smooth="yes"/>
      <point x="516" y="837"/>
      <point x="591" y="949"/>
      <point x="591" y="1036.0" type="qcurve" smooth="yes"/>
      <point x="591" y="1140.0" type="line" smooth="yes"/>
      <point x="591" y="1227"/>
      <point x="516" y="1339"/>
      <point x="418" y="1339" type="qcurve" smooth="yes"/>
      <point x="321" y="1339"/>
      <point x="245.0" y="1227"/>
      <point x="245.0" y="1140.0" type="qcurve" smooth="yes"/>
    </contour>
  </outline>
</glyph>
